<?xml version="1.0" standalone="no"?>
<!DOCTYPE svg PUBLIC "-//W3C//DTD SVG 20010904//EN"
 "http://www.w3.org/TR/2001/REC-SVG-20010904/DTD/svg10.dtd">
<svg version="1.0" xmlns="http://www.w3.org/2000/svg"
 width="500.000000pt" height="500.000000pt" viewBox="0 0 500.000000 500.000000"
 preserveAspectRatio="xMidYMid meet">

<g transform="translate(0.000000,500.000000) scale(0.100000,-0.100000)"
fill="#000000" stroke="none">
<path d="M2385 4539 c-83 -28 -1514 -852 -1576 -907 -34 -31 -62 -69 -91 -130
l-43 -85 -3 -896 c-2 -873 -2 -898 18 -962 23 -76 87 -178 133 -213 47 -35
1429 -832 1517 -875 72 -35 79 -36 185 -36 109 1 111 1 190 42 44 22 107 57
140 76 33 19 186 107 339 196 154 88 281 161 283 161 2 0 49 27 104 60 55 33
103 60 106 60 4 0 23 10 42 23 20 13 79 48 131 79 376 218 394 232 445 323 79
141 74 78 75 1025 0 932 1 914 -63 1034 -62 117 -66 120 -857 576 -407 234
-764 434 -800 447 -85 30 -191 30 -275 2z m342 -581 c45 -13 107 -40 139 -59
80 -48 183 -152 233 -236 l42 -70 67 33 c93 46 283 79 321 55 12 -8 12 -18 -3
-73 -37 -136 -126 -244 -255 -306 l-78 -37 -10 -55 c-6 -30 -9 -56 -8 -58 1
-1 31 7 66 17 132 41 258 141 329 261 33 56 47 94 79 208 l6 23 80 -40 c103
-52 162 -104 223 -195 65 -97 92 -178 99 -293 8 -125 8 -124 -64 -107 -210 49
-452 -38 -586 -212 l-42 -54 -197 0 c-184 0 -199 1 -210 19 -12 19 -12 19 -36
0 -14 -10 -36 -19 -51 -18 l-26 0 24 17 c64 44 63 39 34 122 -20 59 -26 95
-27 170 -1 79 1 95 14 93 8 -2 36 -7 62 -11 46 -9 47 -9 36 12 -6 11 -53 76
-105 144 -101 133 -127 178 -154 262 l-17 55 -68 6 c-38 4 -70 6 -71 5 -1 -1
4 -54 13 -117 10 -72 17 -233 21 -436 5 -292 4 -323 -11 -323 -14 0 -16 27
-16 253 0 225 -18 520 -36 593 -6 21 -12 24 -58 24 -28 0 -57 -4 -64 -9 -8 -4
-17 -37 -22 -72 -11 -87 -41 -161 -98 -241 -146 -208 -140 -197 -152 -287 -6
-47 -20 -107 -31 -135 l-19 -51 23 -20 c12 -11 34 -28 47 -37 l25 -17 -23 0
c-13 -1 -38 9 -55 21 l-30 22 -15 -22 c-8 -12 -23 -22 -34 -22 -18 0 -18 1 -2
29 17 28 14 61 -5 61 -5 0 -37 -21 -71 -46 -37 -27 -70 -44 -82 -42 -17 2 -9
11 37 42 31 22 64 50 72 62 13 21 12 26 -15 66 -36 52 -75 130 -91 180 -7 20
-21 40 -31 43 -23 7 -70 -15 -130 -63 -25 -20 -47 -37 -49 -39 -4 -3 -40 -204
-41 -230 0 -6 19 -23 43 -37 l42 -26 -105 0 c-96 1 -102 2 -75 14 17 7 38 22
47 32 16 18 48 165 48 221 0 38 -119 133 -168 133 -12 0 -59 -18 -103 -40 -70
-36 -83 -46 -99 -83 -22 -48 -26 -133 -8 -172 7 -15 37 -44 67 -66 45 -33 50
-39 30 -39 -13 0 -46 18 -74 40 -53 42 -75 47 -136 28 -34 -10 -39 -15 -39
-40 0 -26 -3 -29 -27 -26 -24 3 -34 15 -71 88 -66 133 -79 259 -42 404 41 160
134 294 264 378 168 109 413 121 595 28 33 -16 62 -34 66 -40 8 -13 35 -13 35
0 0 24 76 128 133 183 72 70 151 118 249 151 102 35 101 35 228 32 88 -2 134
-9 197 -28z m1253 -1041 c40 -11 45 -15 42 -37 -2 -14 -15 -46 -30 -72 l-25
-48 -229 0 c-125 0 -228 4 -228 9 0 12 96 85 148 111 91 47 223 62 322 37z
m-1815 -422 c34 -33 34 -75 1 -75 -18 0 -25 6 -28 23 -5 33 -42 30 -46 -5 -2
-20 9 -40 47 -82 43 -48 51 -62 51 -96 0 -53 -27 -80 -79 -80 -31 0 -44 6 -60
26 -30 38 -28 74 3 74 17 0 26 -7 30 -25 7 -28 43 -35 52 -11 7 19 -18 65 -51
96 -42 38 -58 84 -45 126 20 59 82 73 125 29z m609 4 c26 -20 26 -22 26 -148
0 -153 -8 -171 -75 -171 -77 0 -88 26 -83 190 3 103 5 113 27 131 30 25 72 24
105 -2z m-998 -10 c17 -18 19 -37 19 -146 0 -119 -1 -126 -24 -144 -17 -14
-39 -19 -82 -19 l-59 0 0 165 0 165 63 0 c52 0 67 -4 83 -21z m203 -131 c13
-84 26 -159 28 -165 4 -9 -5 -13 -25 -13 -26 0 -31 4 -34 28 -2 22 -9 28 -34
30 -28 3 -32 0 -37 -27 -5 -25 -12 -31 -32 -31 -20 0 -25 4 -21 18 2 9 15 83
27 165 l23 147 41 0 41 0 23 -152z m301 82 l0 -70 30 0 30 0 0 70 0 70 30 0
30 0 0 -165 0 -165 -30 0 -30 0 0 70 0 70 -30 0 -30 0 0 -70 c0 -68 -1 -70
-25 -70 l-25 0 0 165 0 165 25 0 c24 0 25 -2 25 -70z m304 48 c20 -28 21 -88
2 -113 -11 -16 -11 -21 0 -33 9 -8 14 -36 14 -72 0 -74 -18 -90 -102 -90 l-58
0 0 165 0 165 64 0 c56 0 67 -3 80 -22z m381 0 c9 -39 45 -272 45 -290 0 -12
-8 -18 -24 -18 -19 0 -26 7 -31 30 -6 25 -11 30 -36 30 -25 0 -30 -5 -35 -30
-5 -23 -12 -30 -30 -30 -13 0 -24 2 -24 5 0 2 11 73 25 157 14 84 25 156 25
160 0 4 18 8 40 8 33 0 41 -4 45 -22z m219 6 c21 -20 22 -118 2 -136 -12 -11
-12 -15 0 -29 8 -9 17 -46 21 -83 l6 -66 -31 0 -31 0 -3 63 c-3 56 -5 62 -25
65 -22 3 -23 0 -23 -62 0 -64 -1 -66 -25 -66 l-25 0 0 165 0 165 59 0 c41 0
65 -5 75 -16z m210 -6 c12 -17 16 -50 16 -143 0 -152 -8 -165 -100 -165 l-60
0 0 165 0 165 64 0 c56 0 67 -3 80 -22z m-1192 -665 c23 -20 24 -53 2 -53 -9
0 -23 8 -30 18 -12 16 -13 16 -19 -1 -5 -12 4 -29 29 -57 44 -49 49 -99 14
-124 -41 -29 -82 -13 -94 37 -5 24 -3 27 20 27 16 0 26 -6 26 -15 0 -17 16
-20 25 -6 3 6 -8 25 -24 44 -40 44 -53 81 -41 111 14 38 60 48 92 19z m166 1
c20 -14 23 -23 20 -67 -3 -48 -6 -53 -35 -67 -28 -13 -33 -20 -33 -52 0 -31
-4 -38 -20 -38 -19 0 -20 7 -20 120 l0 120 33 0 c18 0 43 -7 55 -16z m176 0
c12 -12 16 -37 16 -109 0 -89 -1 -96 -24 -110 -33 -22 -75 -10 -88 24 -5 14
-8 61 -6 104 3 64 7 81 23 93 25 18 60 18 79 -2z m174 0 c16 -11 22 -25 22
-54 0 -21 -5 -42 -11 -46 -8 -4 -8 -9 0 -17 6 -6 11 -33 11 -60 0 -44 -2 -48
-22 -45 -19 2 -24 10 -26 46 -4 56 -22 54 -22 -3 0 -41 -2 -45 -25 -45 l-25 0
0 120 0 120 38 0 c21 0 48 -7 60 -16z m192 -4 c0 -13 -7 -20 -20 -20 -19 0
-20 -7 -20 -100 0 -93 -1 -100 -20 -100 -19 0 -20 7 -20 100 0 93 -1 100 -20
100 -13 0 -20 7 -20 20 0 18 7 20 60 20 53 0 60 -2 60 -20z m-361 -650 c18
-33 29 -41 62 -46 22 -4 42 -11 45 -16 4 -5 -7 -24 -24 -41 -28 -29 -30 -36
-25 -84 l6 -53 -47 17 c-39 15 -51 15 -79 4 -58 -23 -62 -21 -59 33 3 43 0 52
-28 81 -35 36 -33 55 5 55 39 0 73 17 80 42 8 26 24 48 34 48 4 0 17 -18 30
-40z"/>
<path d="M2497 3964 c-2 -2 4 -30 15 -62 10 -31 26 -99 36 -149 l17 -93 72 0
73 0 0 35 c0 40 22 100 48 129 9 10 34 27 55 36 l38 17 -59 26 c-32 15 -85 33
-118 41 -63 15 -169 27 -177 20z"/>
<path d="M2360 3944 c-30 -8 -89 -31 -130 -51 l-75 -36 55 -12 c30 -6 70 -19
88 -28 41 -22 89 -88 98 -134 6 -33 9 -35 37 -29 16 3 46 6 67 6 l38 0 -23
108 c-13 59 -30 125 -38 147 -16 47 -34 52 -117 29z"/>
<path d="M2095 3802 c-33 -21 -100 -103 -139 -172 l-25 -45 40 -41 41 -42 60
36 c62 37 237 102 276 102 28 0 29 27 2 80 -43 85 -178 128 -255 82z"/>
<path d="M1520 3693 c-8 -3 -32 -22 -52 -41 -55 -52 -51 -77 20 -153 l58 -62
88 2 c48 1 99 6 112 11 24 10 84 103 84 132 0 28 -51 67 -115 87 -66 20 -171
34 -195 24z"/>
<path d="M2754 3588 c9 -49 61 -147 113 -213 l45 -58 31 57 c17 32 48 77 70
102 l39 44 -65 30 c-63 28 -197 70 -226 70 -10 0 -12 -8 -7 -32z"/>
<path d="M1833 3512 c-58 -86 -58 -87 -23 -197 18 -55 35 -103 38 -107 4 -4 6
37 4 90 -3 88 10 183 33 245 14 36 -21 15 -52 -31z"/>
<path d="M1324 3536 c-48 -21 -103 -75 -128 -125 -35 -69 -59 -149 -52 -175 8
-31 101 -126 124 -126 10 0 57 21 104 48 l85 47 27 81 c37 113 35 129 -22 199
-52 66 -81 76 -138 51z"/>
<path d="M1895 3470 c-10 -39 -16 -73 -14 -75 3 -2 27 18 55 45 l51 49 -26 25
c-15 14 -32 26 -38 26 -6 0 -19 -32 -28 -70z"/>
<path d="M1080 3445 c-58 -90 -86 -160 -101 -255 -17 -109 3 -118 70 -34 30
39 50 80 68 137 14 45 36 103 49 129 28 56 29 62 8 82 -27 28 -43 18 -94 -59z"/>
<path d="M2999 3198 l36 -57 51 -1 c57 0 59 2 69 71 l7 44 -99 0 -99 0 35 -57z"/>
<path d="M981 3024 c-1 -48 28 -137 63 -197 33 -54 33 -35 1 35 -14 31 -34 88
-45 129 -17 67 -19 70 -19 33z"/>
<path d="M2707 2463 c-4 -3 -7 -58 -7 -120 0 -113 0 -114 23 -111 21 3 22 8
25 98 2 52 0 105 -3 118 -5 21 -25 29 -38 15z"/>
<path d="M1690 2344 c0 -114 0 -115 23 -112 21 3 22 7 25 116 l3 112 -26 0
-25 0 0 -116z"/>
<path d="M1907 2405 c-3 -16 -9 -49 -12 -72 -6 -39 -5 -43 14 -43 23 0 25 18
12 100 -7 43 -7 44 -14 15z"/>
<path d="M2500 2419 c0 -33 3 -40 18 -37 12 2 18 14 20 41 3 32 0 37 -17 37
-18 0 -21 -6 -21 -41z"/>
<path d="M2500 2280 c0 -48 2 -51 23 -48 19 3 22 9 22 48 0 39 -3 45 -22 48
-21 3 -23 0 -23 -48z"/>
<path d="M2910 2403 c0 -11 -3 -41 -6 -67 -6 -43 -5 -46 15 -46 21 0 22 3 16
58 -7 56 -25 97 -25 55z"/>
<path d="M3100 2411 c0 -28 4 -51 8 -51 45 0 58 92 15 98 -21 3 -23 0 -23 -47z"/>
<path d="M3300 2346 l0 -116 25 0 c32 0 37 20 33 135 -3 90 -3 90 -30 93 l-28
3 0 -115z"/>
<path d="M2320 1765 c0 -24 5 -35 15 -35 10 0 15 10 15 29 0 16 -6 31 -15 35
-12 4 -15 -3 -15 -29z"/>
<path d="M2496 1793 c-3 -3 -6 -39 -6 -80 0 -58 3 -73 15 -73 12 0 15 15 15
74 0 69 -8 95 -24 79z"/>
<path d="M2670 1766 c0 -20 5 -36 10 -36 6 0 10 13 10 29 0 17 -4 33 -10 36
-6 4 -10 -8 -10 -29z"/>
</g>
</svg>
