<svg xmlns="http://www.w3.org/2000/svg" width="666.667" height="666.667" version="1.0" viewBox="0 0 500 500"><path d="M238.5 46.1c-8.3 2.8-151.4 85.2-157.6 90.7-3.4 3.1-6.2 6.9-9.1 13l-4.3 8.5-.3 89.6c-.2 87.3-.2 89.8 1.8 96.2 2.3 7.6 8.7 17.8 13.3 21.3 4.7 3.5 142.9 83.2 151.7 87.5 7.2 3.5 7.9 3.6 18.5 3.6 10.9-.1 11.1-.1 19-4.2 4.4-2.2 10.7-5.7 14-7.6 3.3-1.9 18.6-10.7 33.9-19.6 15.4-8.8 28.1-16.1 28.3-16.1.2 0 4.9-2.7 10.4-6s10.3-6 10.6-6c.4 0 2.3-1 4.2-2.3 2-1.3 7.9-4.8 13.1-7.9 37.6-21.8 39.4-23.2 44.5-32.3 7.9-14.1 7.4-7.8 7.5-102.5 0-93.2.1-91.4-6.3-103.4-6.2-11.7-6.6-12-85.7-57.6-40.7-23.4-76.4-43.4-80-44.7-8.5-3-19.1-3-27.5-.2zm34.2 58.1c4.5 1.3 10.7 4 13.9 5.9 8 4.8 18.3 15.2 23.3 23.6l4.2 7 6.7-3.3c9.3-4.6 28.3-7.9 32.1-5.5 1.2.8 1.2 1.8-.3 7.3-3.7 13.6-12.6 24.4-25.5 30.6l-7.8 3.7-1 5.5c-.6 3-.9 5.6-.8 5.8.1.1 3.1-.7 6.6-1.7C337.3 179 349.9 169 357 157c3.3-5.6 4.7-9.4 7.9-20.8l.6-2.3 8 4c10.3 5.2 16.2 10.4 22.3 19.5 6.5 9.7 9.2 17.8 9.9 29.3.8 12.5.8 12.4-6.4 10.7-21-4.9-45.2 3.8-58.6 21.2l-4.2 5.4h-19.7c-18.4 0-19.9-.1-21-1.9-1.2-1.9-1.2-1.9-3.6 0-1.4 1-3.6 1.9-5.1 1.8h-2.6l2.4-1.7c6.4-4.4 6.3-3.9 3.4-12.2-2-5.9-2.6-9.5-2.7-17-.1-7.9.1-9.5 1.4-9.3.8.2 3.6.7 6.2 1.1 4.6.9 4.7.9 3.6-1.2-.6-1.1-5.3-7.6-10.5-14.4-10.1-13.3-12.7-17.8-15.4-26.2l-1.7-5.5-6.8-.6c-3.8-.4-7-.6-7.1-.5-.1.1.4 5.4 1.3 11.7 1 7.2 1.7 23.3 2.1 43.6.5 29.2.4 32.3-1.1 32.3-1.4 0-1.6-2.7-1.6-25.3 0-22.5-1.8-52-3.6-59.3-.6-2.1-1.2-2.4-5.8-2.4-2.8 0-5.7.4-6.4.9-.8.4-1.7 3.7-2.2 7.2-1.1 8.7-4.1 16.1-9.8 24.1-14.6 20.8-14 19.7-15.2 28.7-.6 4.7-2 10.7-3.1 13.5l-1.9 5.1 2.3 2c1.2 1.1 3.4 2.8 4.7 3.7l2.5 1.7h-2.3c-1.3.1-3.8-.9-5.5-2.1l-3-2.2-1.5 2.2c-.8 1.2-2.3 2.2-3.4 2.2-1.8 0-1.8-.1-.2-2.9 1.7-2.8 1.4-6.1-.5-6.1-.5 0-3.7 2.1-7.1 4.6-3.7 2.7-7 4.4-8.2 4.2-1.7-.2-.9-1.1 3.7-4.2 3.1-2.2 6.4-5 7.2-6.2 1.3-2.1 1.2-2.6-1.5-6.6-3.6-5.2-7.5-13-9.1-18-.7-2-2.1-4-3.1-4.3-2.3-.7-7 1.5-13 6.3-2.5 2-4.7 3.7-4.9 3.9-.4.3-4 20.4-4.1 23 0 .6 1.9 2.3 4.3 3.7l4.2 2.6H161c-9.6-.1-10.2-.2-7.5-1.4 1.7-.7 3.8-2.2 4.7-3.2 1.6-1.8 4.8-16.5 4.8-22.1 0-3.8-11.9-13.3-16.8-13.3-1.2 0-5.9 1.8-10.3 4-7 3.6-8.3 4.6-9.9 8.3-2.2 4.8-2.6 13.3-.8 17.2.7 1.5 3.7 4.4 6.7 6.6 4.5 3.3 5 3.9 3 3.9-1.3 0-4.6-1.8-7.4-4-5.3-4.2-7.5-4.7-13.6-2.8-3.4 1-3.9 1.5-3.9 4 0 2.6-.3 2.9-2.7 2.6-2.4-.3-3.4-1.5-7.1-8.8-6.6-13.3-7.9-25.9-4.2-40.4 4.1-16 13.4-29.4 26.4-37.8 16.8-10.9 41.3-12.1 59.5-2.8 3.3 1.6 6.2 3.4 6.6 4 .8 1.3 3.5 1.3 3.5 0 0-2.4 7.6-12.8 13.3-18.3 7.2-7 15.1-11.8 24.9-15.1 10.2-3.5 10.1-3.5 22.8-3.2 8.8.2 13.4.9 19.7 2.8zM398 208.3c4 1.1 4.5 1.5 4.2 3.7-.2 1.4-1.5 4.6-3 7.2l-2.5 4.8h-22.9c-12.5 0-22.8-.4-22.8-.9 0-1.2 9.6-8.5 14.8-11.1 9.1-4.7 22.3-6.2 32.2-3.7zm-181.5 42.2c3.4 3.3 3.4 7.5.1 7.5-1.8 0-2.5-.6-2.8-2.3-.5-3.3-4.2-3-4.6.5-.2 2 .9 4 4.7 8.2 4.3 4.8 5.1 6.2 5.1 9.6 0 5.3-2.7 8-7.9 8-3.1 0-4.4-.6-6-2.6-3-3.8-2.8-7.4.3-7.4 1.7 0 2.6.7 3 2.5.7 2.8 4.3 3.5 5.2 1.1.7-1.9-1.8-6.5-5.1-9.6-4.2-3.8-5.8-8.4-4.5-12.6 2-5.9 8.2-7.3 12.5-2.9zm60.9-.4c2.6 2 2.6 2.2 2.6 14.8 0 15.3-.8 17.1-7.5 17.1-7.7 0-8.8-2.6-8.3-19 .3-10.3.5-11.3 2.7-13.1 3-2.5 7.2-2.4 10.5.2zm-99.8 1c1.7 1.8 1.9 3.7 1.9 14.6 0 11.9-.1 12.6-2.4 14.4-1.7 1.4-3.9 1.9-8.2 1.9H163v-33h6.3c5.2 0 6.7.4 8.3 2.1zm20.3 13.1c1.3 8.4 2.6 15.9 2.8 16.5.4.9-.5 1.3-2.5 1.3-2.6 0-3.1-.4-3.4-2.8-.2-2.2-.9-2.8-3.4-3-2.8-.3-3.2 0-3.7 2.7-.5 2.5-1.2 3.1-3.2 3.1s-2.5-.4-2.1-1.8c.2-.9 1.5-8.3 2.7-16.5l2.3-14.7h8.2l2.3 15.2zM228 256v7h6v-14h6v33h-6v-14h-6v7c0 6.8-.1 7-2.5 7H223v-33h2.5c2.4 0 2.5.2 2.5 7zm30.4-4.8c2 2.8 2.1 8.8.2 11.3-1.1 1.6-1.1 2.1 0 3.3.9.8 1.4 3.6 1.4 7.2 0 7.4-1.8 9-10.2 9H244v-33h6.4c5.6 0 6.7.3 8 2.2zm38.1 0c.9 3.9 4.5 27.2 4.5 29 0 1.2-.8 1.8-2.4 1.8-1.9 0-2.6-.7-3.1-3-.6-2.5-1.1-3-3.6-3s-3 .5-3.5 3c-.5 2.3-1.2 3-3 3-1.3 0-2.4-.2-2.4-.5 0-.2 1.1-7.3 2.5-15.7 1.4-8.4 2.5-15.6 2.5-16 0-.4 1.8-.8 4-.8 3.3 0 4.1.4 4.5 2.2zm21.9-.6c2.1 2 2.2 11.8.2 13.6-1.2 1.1-1.2 1.5 0 2.9.8.9 1.7 4.6 2.1 8.3l.6 6.6h-6.2l-.3-6.3c-.3-5.6-.5-6.2-2.5-6.5-2.2-.3-2.3 0-2.3 6.2 0 6.4-.1 6.6-2.5 6.6H305v-33h5.9c4.1 0 6.5.5 7.5 1.6zm21 .6c1.2 1.7 1.6 5 1.6 14.3 0 15.2-.8 16.5-10 16.5h-6v-33h6.4c5.6 0 6.7.3 8 2.2zm-119.2 66.5c2.3 2 2.4 5.3.2 5.3-.9 0-2.3-.8-3-1.8-1.2-1.6-1.3-1.6-1.9.1-.5 1.2.4 2.9 2.9 5.7 4.4 4.9 4.9 9.9 1.4 12.4-4.1 2.9-8.2 1.3-9.4-3.7-.5-2.4-.3-2.7 2-2.7 1.6 0 2.6.6 2.6 1.5 0 1.7 1.6 2 2.5.6.3-.6-.8-2.5-2.4-4.4-4-4.4-5.3-8.1-4.1-11.1 1.4-3.8 6-4.8 9.2-1.9zm16.6-.1c2 1.4 2.3 2.3 2 6.7-.3 4.8-.6 5.3-3.5 6.7-2.8 1.3-3.3 2-3.3 5.2 0 3.1-.4 3.8-2 3.8-1.9 0-2-.7-2-12v-12h3.3c1.8 0 4.3.7 5.5 1.6zm17.6 0c1.2 1.2 1.6 3.7 1.6 10.9 0 8.9-.1 9.6-2.4 11-3.3 2.2-7.5 1-8.8-2.4-.5-1.4-.8-6.1-.6-10.4.3-6.4.7-8.1 2.3-9.3 2.5-1.8 6-1.8 7.9.2zm17.4 0c1.6 1.1 2.2 2.5 2.2 5.4 0 2.1-.5 4.2-1.1 4.6-.8.4-.8.9 0 1.7.6.6 1.1 3.3 1.1 6 0 4.4-.2 4.8-2.2 4.5-1.9-.2-2.4-1-2.6-4.6-.4-5.6-2.2-5.4-2.2.3 0 4.1-.2 4.5-2.5 4.5H262v-24h3.8c2.1 0 4.8.7 6 1.6zm19.2.4c0 1.3-.7 2-2 2-1.9 0-2 .7-2 10s-.1 10-2 10-2-.7-2-10-.1-10-2-10c-1.3 0-2-.7-2-2 0-1.8.7-2 6-2s6 .2 6 2zm-36.1 65c1.8 3.3 2.9 4.1 6.2 4.6 2.2.4 4.2 1.1 4.5 1.6.4.5-.7 2.4-2.4 4.1-2.8 2.9-3 3.6-2.5 8.4l.6 5.3-4.7-1.7c-3.9-1.5-5.1-1.5-7.9-.4-5.8 2.3-6.2 2.1-5.9-3.3.3-4.3 0-5.2-2.8-8.1-3.5-3.6-3.3-5.5.5-5.5 3.9 0 7.3-1.7 8-4.2.8-2.6 2.4-4.8 3.4-4.8.4 0 1.7 1.8 3 4z"/><path d="M249.7 103.6c-.2.2.4 3 1.5 6.2 1 3.1 2.6 9.9 3.6 14.9l1.7 9.3H271v-3.5c0-4 2.2-10 4.8-12.9.9-1 3.4-2.7 5.5-3.6l3.8-1.7-5.9-2.6c-3.2-1.5-8.5-3.3-11.8-4.1-6.3-1.5-16.9-2.7-17.7-2zM236 105.6c-3 .8-8.9 3.1-13 5.1l-7.5 3.6 5.5 1.2c3 .6 7 1.9 8.8 2.8 4.1 2.2 8.9 8.8 9.8 13.4.6 3.3.9 3.5 3.7 2.9 1.6-.3 4.6-.6 6.7-.6h3.8l-2.3-10.8c-1.3-5.9-3-12.5-3.8-14.7-1.6-4.7-3.4-5.2-11.7-2.9z"/><path d="M209.5 119.8c-3.3 2.1-10 10.3-13.9 17.2l-2.5 4.5 4 4.1 4.1 4.2 6-3.6c6.2-3.7 23.7-10.2 27.6-10.2 2.8 0 2.9-2.7.2-8-4.3-8.5-17.8-12.8-25.5-8.2zM152 130.7c-.8.3-3.2 2.2-5.2 4.1-5.5 5.2-5.1 7.7 2 15.3l5.8 6.2 8.8-.2c4.8-.1 9.9-.6 11.2-1.1 2.4-1 8.4-10.3 8.4-13.2 0-2.8-5.1-6.7-11.5-8.7-6.6-2-17.1-3.4-19.5-2.4zM275.4 141.2c.9 4.9 6.1 14.7 11.3 21.3l4.5 5.8 3.1-5.7c1.7-3.2 4.8-7.7 7-10.2l3.9-4.4-6.5-3c-6.3-2.8-19.7-7-22.6-7-1 0-1.2.8-.7 3.2zM183.3 148.8c-5.8 8.6-5.8 8.7-2.3 19.7 1.8 5.5 3.5 10.3 3.8 10.7.4.4.6-3.7.4-9-.3-8.8 1-18.3 3.3-24.5 1.4-3.6-2.1-1.5-5.2 3.1zM132.4 146.4c-4.8 2.1-10.3 7.5-12.8 12.5-3.5 6.9-5.9 14.9-5.2 17.5.8 3.1 10.1 12.6 12.4 12.6 1 0 5.7-2.1 10.4-4.8l8.5-4.7 2.7-8.1c3.7-11.3 3.5-12.9-2.2-19.9-5.2-6.6-8.1-7.6-13.8-5.1zM189.5 153c-1 3.9-1.6 7.3-1.4 7.5.3.2 2.7-1.8 5.5-4.5l5.1-4.9-2.6-2.5c-1.5-1.4-3.2-2.6-3.8-2.6-.6 0-1.9 3.2-2.8 7zM108 155.5c-5.8 9-8.6 16-10.1 25.5-1.7 10.9.3 11.8 7 3.4 3-3.9 5-8 6.8-13.7 1.4-4.5 3.6-10.3 4.9-12.9 2.8-5.6 2.9-6.2.8-8.2-2.7-2.8-4.3-1.8-9.4 5.9zM299.9 180.2l3.6 5.7 5.1.1c5.7 0 5.9-.2 6.9-7.1l.7-4.4h-19.8l3.5 5.7zM98.1 197.6c-.1 4.8 2.8 13.7 6.3 19.7 3.3 5.4 3.3 3.5.1-3.5-1.4-3.1-3.4-8.8-4.5-12.9-1.7-6.7-1.9-7-1.9-3.3zM270.7 253.7c-.4.3-.7 5.8-.7 12 0 11.3 0 11.4 2.3 11.1 2.1-.3 2.2-.8 2.5-9.8.2-5.2 0-10.5-.3-11.8-.5-2.1-2.5-2.9-3.8-1.5zM169 265.6c0 11.4 0 11.5 2.3 11.2 2.1-.3 2.2-.7 2.5-11.6l.3-11.2H169v11.6zM190.7 259.5c-.3 1.6-.9 4.9-1.2 7.2-.6 3.9-.5 4.3 1.4 4.3 2.3 0 2.5-1.8 1.2-10-.7-4.3-.7-4.4-1.4-1.5zM250 258.1c0 3.3.3 4 1.8 3.7 1.2-.2 1.8-1.4 2-4.1.3-3.2 0-3.7-1.7-3.7-1.8 0-2.1.6-2.1 4.1zM250 272c0 4.8.2 5.1 2.3 4.8 1.9-.3 2.2-.9 2.2-4.8s-.3-4.5-2.2-4.8c-2.1-.3-2.3 0-2.3 4.8zM291 259.7c0 1.1-.3 4.1-.6 6.7-.6 4.3-.5 4.6 1.5 4.6 2.1 0 2.2-.3 1.6-5.8-.7-5.6-2.5-9.7-2.5-5.5zM310 258.9c0 2.8.4 5.1.8 5.1 4.5 0 5.8-9.2 1.5-9.8-2.1-.3-2.3 0-2.3 4.7zM330 265.4V277h2.5c3.2 0 3.7-2 3.3-13.5-.3-9-.3-9-3-9.3l-2.8-.3v11.5zM232 323.5c0 2.4.5 3.5 1.5 3.5s1.5-1 1.5-2.9c0-1.6-.6-3.1-1.5-3.5-1.2-.4-1.5.3-1.5 2.9zM249.6 320.7c-.3.3-.6 3.9-.6 8 0 5.8.3 7.3 1.5 7.3s1.5-1.5 1.5-7.4c0-6.9-.8-9.5-2.4-7.9zM267 323.4c0 2 .5 3.6 1 3.6.6 0 1-1.3 1-2.9 0-1.7-.4-3.3-1-3.6-.6-.4-1 .8-1 2.9z"/></svg>